<svg xmlns="http://www.w3.org/2000/svg" width="1024" height="1024" viewBox="0 0 512 512" style="overflow: visible;"><defs transform="matrix(1, 0, 0, 1, 0, 0)" data-uid="o_ekl1lmni0_6"><linearGradient id="go_ekl1ic68a_5138" x1="59%" y1="1%" x2="41%" y2="99%" data-uid="o_ekl1lmni0_7"><stop offset="0%" data-uid="o_ekl1lmni0_8" style="stop-color: rgb(76, 219, 195); stop-opacity: 1;"></stop><stop offset="100%" data-uid="o_ekl1lmni0_9" style="stop-color: rgb(0, 204, 170); stop-opacity: 1;"></stop></linearGradient><linearGradient id="go_ekl1lmni0_164" x1="75%" y1="7%" x2="25%" y2="93%" data-uid="go_ekl1lmni0_164"><stop offset="0%" data-uid="o_ekl1lmni0_165" style="stop-color: rgb(76, 219, 195); stop-opacity: 1;"></stop><stop offset="100%" data-uid="o_ekl1lmni0_166" style="stop-color: rgb(0, 204, 170); stop-opacity: 1;"></stop></linearGradient><linearGradient id="go_ekl1lmni0_2142" x1="7%" y1="25%" x2="93%" y2="75%" data-uid="go_ekl1lmni0_2142"><stop offset="0%" data-uid="o_ekl1lmni0_2143" style="stop-color: rgb(0, 0, 0); stop-opacity: 0.13;"></stop><stop offset="100%" data-uid="o_ekl1lmni0_2144" style="stop-color: rgb(27, 27, 31); stop-opacity: 0.16;"></stop></linearGradient><linearGradient id="go_ekl1lmni0_6997" x1="79%" y1="9%" x2="21%" y2="91%" data-uid="go_ekl1lmni0_6997"><stop offset="21%" data-uid="o_ekl1lmni0_6998" style="stop-color: rgb(204, 170, 0); stop-opacity: 0.1;"></stop><stop offset="100%" data-uid="o_ekl1lmni0_6999" style="stop-color: rgb(0, 204, 170); stop-opacity: 0.1;"></stop></linearGradient></defs><path transform="matrix(3.368, 0, 0, 2.682775696771158, 83.51999511718748, 119.97864324707002)" fill="url(#go_ekl1lmni0_6997)" data-type="rect" data-x="0" data-y="0" data-width="100" data-height="100" d="M0,0H100,V100,H0,Z" data-uid="o_ekl1lmni0_25"></path><g transform="matrix(10.786289847472613, 0, 0, 11.591014862060547, 73.29301510951728, 116.97589770230361)" stroke="rgba(153,234,221,0)" fill="url(#go_ekl1lmni0_2142)" stroke-width="3" data-uid="o_ekl1lmni0_2122"><path d="M31,26 L3,26 C1.346,26 0,24.654 0,23 L0,3 C0,1.346 1.346,0 3,0 L31,0 C32.654,0 34,1.346 34,3 L34,23 C34,24.654 32.654,26 31,26 L31,26 Z M3,2 C2.448,2 2,2.449 2,3 L2,23 C2,23.551 2.448,24 3,24 L31,24 C31.552,24 32,23.551 32,23 L32,3 C32,2.449 31.552,2 31,2 L3,2 L3,2 Z" transform="matrix(0.9610271771043006, 0, 0, 1, 1.1501989620931337, -0.4235255469440471)" stroke="rgba(153,234,221,0)" stroke-width="3" fill-rule="evenodd" fill="url(#go_ekl1lmni0_2142)" data-uid="o_ekl1lmni0_2123"></path></g>.st0{fill:#FF9071;}
	.st1{fill:#00FF00;}Fichier 71<g transform="matrix(10.365917683545382, 0, 0, 11.591014862060547, 76.22413892262477, 102.0668106079101)" stroke="rgba(153,234,221,0)" fill="#0088cc" stroke-width="3" data-uid="o_ekl1lmni0_11"><path d="M31,26 L3,26 C1.346,26 0,24.654 0,23 L0,3 C0,1.346 1.346,0 3,0 L31,0 C32.654,0 34,1.346 34,3 L34,23 C34,24.654 32.654,26 31,26 L31,26 Z M3,2 C2.448,2 2,2.449 2,3 L2,23 C2,23.551 2.448,24 3,24 L31,24 C31.552,24 32,23.551 32,23 L32,3 C32,2.449 31.552,2 31,2 L3,2 L3,2 Z" transform="matrix(1, 0, 0, 1, -3.291081327461143e-7, -3.2910813096975744e-7)" stroke="rgba(153,234,221,0)" stroke-width="3" fill-rule="evenodd" fill="#0088cc" data-uid="o_ekl1lmni0_12"></path></g><g transform="matrix(3.485661704252519, 0, 0, 2.5216840827661717, 79.68922167406684, 130.05246676404627)" fill="url(#go_ekl1ic68a_5138)" data-uid="o_ekl1lmni0_13"><path data-name="Compound Path" d="M88.8,7.5a2,2,0,0,0-2.1-.2h-.1L14.1,45.7a7,7,0,0,0,.6,12.6l14.9,6.2,4.3,26.7a2,2,0,0,0,1.3,1.6h.6a2,2,0,0,0,1.4-.6L51.5,78.5l12.8,8.7a7,7,0,0,0,10.8-4.4L89.5,9.5A2,2,0,0,0,88.8,7.5ZM14.4,52.1A2.9,2.9,0,0,1,16,49.3L75.9,17.5l-45,43.3L16.3,54.7A2.9,2.9,0,0,1,14.4,52.1ZM33.5,63.9,70.6,28.1,40.3,68.4a2,2,0,0,0-.4.9L36.4,81.7Zm6.3,20.4L43,72.8l5,3.4ZM71.2,82a3,3,0,0,1-4.6,1.9L44.7,69.1,83.9,17.2Z" transform="matrix(1.0054709176242467, 0, 0, 1, 0.31727034338184623, 7.105427357601002e-15)" fill="url(#go_ekl1lmni0_164)" data-uid="o_ekl1lmni0_14"></path></g></svg>